<svg width="19" height="12" viewBox="0 0 19 12" fill="none" xmlns="http://www.w3.org/2000/svg">
<path d="M18.6963 1.00295L18.0739 0.332829C17.8781 0.123551 17.6175 0.00825896 17.339 0.00825896C17.0606 0.00825896 16.7997 0.123551 16.6038 0.332829L9.50425 7.92462L2.39649 0.324405C2.20093 0.115127 1.94002 0 1.66166 0C1.3833 0 1.12224 0.115127 0.926528 0.324405L0.304002 0.990392C-0.101334 1.42348 -0.101334 2.12895 0.304002 2.56204L8.76664 11.6436C8.9622 11.8527 9.2228 12 9.50363 12H9.50687C9.78539 12 10.046 11.8525 10.2415 11.6436L18.6963 2.58665C18.8922 2.37754 18.9997 2.09046 19 1.79281C19 1.495 18.8922 1.21189 18.6963 1.00295Z" fill="white"/>
</svg>
