<svg width="20" height="20" viewBox="0 0 20 20" fill="none" xmlns="http://www.w3.org/2000/svg">
<path d="M13.0262 14.2534C11.7801 13.8408 10.8796 13.8015 10 13.8015V19.9999H18.2932C18.6387 19.9999 18.9738 19.9214 19.2775 19.7642C19.7277 19.5284 20 19.165 20 18.6247C19.9895 17.1119 16.6283 15.4616 13.0262 14.2534Z" fill="white"/>
<path d="M6.96335 14.2534C8.20942 13.8408 9.12042 13.8015 10 13.8015V19.9999H1.70681C1.36126 19.9999 1.02618 19.9214 0.722513 19.7642C0.272251 19.5284 0 19.165 0 18.6247C0 17.1119 3.37173 15.4616 6.96335 14.2534Z" fill="white"/>
<path d="M10.1377 11.2401C13.1591 11.2401 15.6084 8.72392 15.6084 5.62005C15.6084 2.51618 13.1591 0 10.1377 0C7.1163 0 4.66699 2.51618 4.66699 5.62005C4.66699 8.72392 7.1163 11.2401 10.1377 11.2401Z" fill="white"/>
</svg>
